<?xml version="1.0" encoding="utf-8"?>
<!-- Generator: Adobe Illustrator 22.1.0, SVG Export Plug-In . SVG Version: 6.00 Build 0)  -->
<svg version="1.1" id="Слой_1" xmlns="http://www.w3.org/2000/svg" xmlns:xlink="http://www.w3.org/1999/xlink" x="0px" y="0px"
	 viewBox="0 0 2560 1440" style="enable-background:new 0 0 2560 1440;" xml:space="preserve">
<style type="text/css">
	.st0{fill:none;stroke:#000000;stroke-width:10;stroke-miterlimit:10;}
	.st1{fill:#168B37;stroke:#000000;stroke-width:10;stroke-miterlimit:10;}
	.st2{fill:#FFFFFF;}
	.st3{fill:#FF7BAC;}
	.st4{fill:none;stroke:#000000;stroke-width:12;stroke-miterlimit:10;}
</style>
<g>
	<line class="st0" x1="735.9" y1="907" x2="1355.8" y2="1039.5"/>
	<line class="st0" x1="1344.8" y1="1121" x2="1355.8" y2="1039.5"/>
	<line class="st0" x1="735.9" y1="907" x2="734.5" y2="982.6"/>
	<line class="st0" x1="868.8" y1="765.7" x2="735.9" y2="907"/>
	<line class="st0" x1="1443.4" y1="898.2" x2="868.8" y2="765.7"/>
	<line class="st0" x1="1455.8" y1="942.8" x2="1443.4" y2="898.2"/>
	<line class="st0" x1="1375.6" y1="1005.2" x2="766.4" y2="874.5"/>
	<line class="st0" x1="1142.5" y1="828.8" x2="1079.8" y2="941.7"/>
	<line class="st0" x1="1242.7" y1="851.9" x2="1175.4" y2="962.2"/>
	<line class="st0" x1="1344.2" y1="875.3" x2="1276.5" y2="983.9"/>
	<line class="st0" x1="1040.8" y1="805.4" x2="973.7" y2="914.2"/>
	<line class="st0" x1="951.9" y1="784.8" x2="879.6" y2="898.8"/>
	<line class="st0" x1="1355.8" y1="1039.5" x2="1443.4" y2="898.2"/>
	<line class="st0" x1="1344.8" y1="1121" x2="1455.8" y2="942.8"/>
	<line class="st0" x1="734.5" y1="982.6" x2="1344.8" y2="1121"/>
</g>
<polygon class="st1" points="1276.5,983.9 1175.4,962.2 1242.7,851.9 1344.2,875.3 "/>
<g>
	<g id="XMLID_1_">
		<g>
			<path class="st2" d="M1014.5,773.5l2.5-94.5c-0.4-4.8-1.6-9.6-3.4-14.4c-1.7-4.6-4-9.1-6.9-13.3c-0.6-0.9-1.2-1.8-1.9-2.6
				c22.6-21.7,50.1-42.6,83.2-59.7c23.1-11.9,45.5-20.2,66-26c6.7-8.1,14-16.5,22-25c7.5-7.9,14.8-15.3,22-22c7,6.7,14.5,14.7,22,24
				c8.6,10.6,15.5,20.8,21,30c13.5,4,27.1,8.3,41,13c66.1,22.5,124.4,50.1,175,79c22.7-9.7,45.3-19.3,68-29c8.7,28.8,5.6,48.3,1,61
				c-3.3,9-7,13.8-12,27c-6.7,17.8-9.1,33.5-10,44c18,21.2,42.5,57,51,106c1.9,11,2.8,21.4,3,31l-0.1,0.4l-89.7-21.2
				c2.3-2.8,4.6-5.7,6.9-8.7l-3.5-2.8l-93.1-90c0.1-0.2,0.3-0.5,0.4-0.7l-2.9-1.7l-0.3-0.3v0.1l-3.1-1.8
				c-8.4,12.6-16.6,25.3-24.8,38c-4.1,6.3-8.1,12.7-12.2,19.1c-3.2,5-6.4,10-9.5,15.1l-316-74.8L1014.5,773.5l-0.5-0.1
				C1014.2,773.4,1014.3,773.5,1014.5,773.5z M1327,764.5c0-8.6-6.9-15.5-15.5-15.5s-15.5,6.9-15.5,15.5s6.9,15.5,15.5,15.5
				S1327,773.1,1327,764.5z M1127,699.5c0-8.6-6.9-15.5-15.5-15.5s-15.5,6.9-15.5,15.5s6.9,15.5,15.5,15.5S1127,708.1,1127,699.5z"
				/>
			<path d="M1471.6,871.4l1.1,1.5c-2.3,3-11.7,7.8-14.1,10.6l-0.8-2.6c4.7-5.2,12.4-7.1,13-7.8L1471.6,871.4z"/>
			<path d="M1472.7,872l0.7,1.5c-11.6,7.5-20.3,10.8-10.9,6c-1.1-0.7-14.5,8.5-15.7,7.8c1-0.4,14.9-10.2,15.9-10.6
				c3.4-1.6,6.2-3.8,9.4-5.5L1472.7,872z"/>
			<path class="st2" d="M1453.6,892.1l-0.5-0.8c-3.3,1.7-6.7,3.3-10,4.9c-1,0.4-1.9,0.9-2.9,1.3l-105.9-70.1
				c9.5-7.8,19.2-15.6,28.8-23.5c11.5-9.4,22.9-18.9,34.3-28.4L1453.6,892.1z"/>
			<path d="M1464.4,878.2l-3.6,1.2l0,0C1462.1,879.7,1463.1,877.9,1464.4,878.2z"/>
			<path d="M1472.7,872l-43.7,37.7c-39.8,14.5-49.8,27.4-114.7,21c-2.1-1.5-9.1-3.2-11.1-5.3c-5.5-5.4-16.1-12-16-19.8
				c0.1-8.9-1.5-32.9,2.7-42c41-67.2,96.9-61.7,44.4-50.1l7.6,7.4c-2.1,1.8,9.9-9.1,7.9-7.4c26.3-37.3-15.6,10.2-38.4,31
				c-2.5,2.6-3.8,1.4-5.8,4.2s11.7-7.8-7.3,8.8c-11.9,3.3,7.4-27.6-13.1,19.5c-0.5,3.4,0,7.1,0,10.5c0,3,2.6,17.3,8.6,22.5
				c2,3.3,5.6,5.7,7.7,7.8c2.4,2.4,1,2.1,14.3,5.8c5.5,3.6,15.7,5.1,22.6,6.3c3.4,0.6-17.9-2.4-14.4-2.2c3.6,0.1-20.4-3.7-16.8-3.9
				c7.2-0.4,5.4,0.4,23.3,2.8c19.5,0.9,27,0.9,34.1-1.3s29.8-7.1,43.6-14.8c6.9-2.7,44-25.6,61.3-40.4
				C1471.9,869.1,1472.7,872,1472.7,872z"/>
			<path class="st2" d="M1446.5,887.1L1446.5,887.1c-2.4,1.1-4,3.6-6.5,4.7c-7.6,6.5-13.5,10.2-20.4,12.8c-6.9,2.7-12.9,7.4-20,9.5
				c-7.1,2.2-16.5-3.8-23.7-2.3c-7.3,1.5-14.5,2.6-21.7,3c-3.6,0.3-7.1,0.3-10.7,0.1c-3.6-0.1-20.3,10.6-23.7,10
				c-6.9-1.3-9.3-0.9-14.7-4.5c-2.6-1.8-7.2-5.8-9.7-8.2c-7.6-8-6-8.5-7.1-11.2c-2.1-7.1-2.1-7.1-0.5-16.6c0-3.4,2.9-11.1,3.4-14.5
				c2.4-6.3,5.1-8.5,7.1-10.9c1.4-3.1,11-11.4,12.9-14.2c2-2.8,4.3-5.3,6.8-8c5-5.1,10.6-10,16.3-14.8c2-1.8,4.2-3.5,6.3-5.2
				L1446.5,887.1z"/>
			<path d="M1382.8,779c-0.1,0.2-3.8,2.8-3.9,3l4.7-2L1382.8,779z"/>
			<path d="M1395.8,772.4l1.5,3.1c-11.4,9.6-22.8,19-34.3,28.4c-9.7,7.8-53.2,44.6-62.9,52.6l-8.5,2.4c4.5-3.7,47.4-42.4,53.3-46.9
				c23.7-18.7,41.7-32.9,50.6-39.8L1395.8,772.4z"/>
			<path class="st2" d="M1375.7,777l0.3,0.3L1375.7,777C1375.7,777.1,1375.7,777,1375.7,777z"/>
			<path d="M1393.3,769.3l2.3,2.8c-8.8,6.9-26.9,21.1-50.6,39.8c-5.8,4.6-6.2,10.1-10.7,13.8l-9.5-4.6c4.7-3.7,9.4-7.4,14.1-10.9
				c6.1-4.6,12-9.2,18-13.7C1369,787.3,1381,778.2,1393.3,769.3z"/>
			<circle cx="1311.5" cy="764.5" r="15.5"/>
			<circle cx="1111.5" cy="699.5" r="15.5"/>
			<path class="st2" d="M1000.4,656.7c6.5,6.2,11.9,13.8,16.6,22.3l-2.5,94.5c-0.2,0-0.3-0.1-0.5-0.1l-84.4-25.3
				c6-10.9,13.5-23.8,23-37.5c2.5,2.8,5.8,4.4,9.4,4.4c7.7,0,14-7.6,14-17c0-5-1.8-9.5-4.7-12.7c1.7-2.1,3.4-4.2,5.2-6.3
				c4.7,0,8.5-3.8,8.5-8.5c0-0.4,0-0.8-0.1-1.2c4.3-4.8,8.8-9.6,13.6-14.4C999.2,655.5,999.8,656.1,1000.4,656.7z"/>
			<path d="M1013.6,664.6c1.8,4.8,3,9.6,3.4,14.4c-1.7-5.5-5.8-16.8-15.3-27.2c1-1,2.1-2,3.1-3.1c0.6,0.8,1.3,1.7,1.9,2.6
				C1009.6,655.5,1011.9,660,1013.6,664.6z"/>
			<path d="M929.6,748.1l84.4,25.3c-28.9-6.9-57.9-13.8-86.8-20.7C928,751.2,928.8,749.7,929.6,748.1z"/>
			<path d="M1010.1,772.7l-95.5-17.1l-2.8-0.5l-1.3-3.2c-0.4-1-0.8-2-1.2-3L1010.1,772.7z"/>
			<path d="M1001.7,651.8c9.5,10.5,13.6,21.7,15.3,27.2c-4.7-8.5-10.1-16.1-16.6-22.3c-0.6-0.6-1.3-1.2-1.9-1.8
				C999.6,653.9,1000.6,652.8,1001.7,651.8z"/>
			<path class="st2" d="M990.1,648.3c3,2,5.8,4.2,8.4,6.6c-4.8,4.8-9.3,9.6-13.6,14.4c-0.6-4.1-4.1-7.3-8.4-7.3
				c-4.7,0-8.5,3.8-8.5,8.5s3.8,8.5,8.5,8.5l0,0c-1.8,2.1-3.5,4.2-5.2,6.3c-2.5-2.7-5.8-4.3-9.3-4.3c-7.7,0-14,7.6-14,17
				c0,5,1.8,9.5,4.6,12.6c-9.4,13.8-17,26.6-23,37.5l-9.1-2.7c-4.6-16.8-7-34.1-5.5-50.9c0.4-4.4,1.1-8.7,2.1-13
				c0.9-4.3,2.3-8.4,3.9-12.4c0.8-2,1.7-4,2.7-5.9c0.4-0.9,1-1.9,1.5-2.8l0.8-1.4l0.9-1.5c2.4-3.8,4.8-7.3,7.6-10.3
				c2.7-3,5.8-5.5,9.2-7.3s7.1-3,11-3.4c3.8-0.4,7.9-0.1,11.9,0.8c4,1,8,2.5,11.9,4.4c2,0.9,3.9,2,5.8,3.1c1,0.5,1.9,1.1,2.9,1.7
				l1.5,0.9L990.1,648.3z M958.5,659c0-4.7-3.8-8.5-8.5-8.5s-8.5,3.8-8.5,8.5s3.8,8.5,8.5,8.5S958.5,663.7,958.5,659z M944,686.5
				c0-4.7-3.8-8.5-8.5-8.5s-8.5,3.8-8.5,8.5s3.8,8.5,8.5,8.5S944,691.2,944,686.5z"/>
			<path class="st3" d="M984.9,669.3c0,0.4,0.1,0.8,0.1,1.2c0,4.7-3.8,8.5-8.5,8.5C979.2,675.8,982,672.6,984.9,669.3z"/>
			<path class="st3" d="M984.9,669.3c-2.9,3.2-5.7,6.4-8.4,9.7l0,0c-4.7,0-8.5-3.8-8.5-8.5s3.8-8.5,8.5-8.5
				C980.8,662,984.3,665.2,984.9,669.3z"/>
			<path class="st3" d="M971.3,685.3c2.9,3.1,4.7,7.6,4.7,12.7c0,9.4-6.3,17-14,17c-3.6,0-6.9-1.7-9.4-4.4
				C958.2,702.4,964.4,694,971.3,685.3z"/>
			<path class="st3" d="M962,681c3.6,0,6.9,1.6,9.3,4.3c-6.9,8.6-13.2,17.1-18.8,25.2c-2.8-3.1-4.6-7.6-4.6-12.6
				C948,688.6,954.3,681,962,681z"/>
			<circle class="st3" cx="950" cy="659" r="8.5"/>
			<circle class="st3" cx="935.5" cy="686.5" r="8.5"/>
			<path d="M917.2,744.4l4.1,3.7c-0.3-0.9-0.5-1.8-0.8-2.7l9.1,2.7c-0.8,1.6-1.7,3.1-2.4,4.5c-3.7-0.9-7.5-1.8-11.2-2.7
				c-4.2-12.1-18.7-58.2,4-95c4.5-7.4,12.4-19.7,27-24c20.5-6,39.6,8,45,12c3.7,2.8,7,5.7,9.7,8.8c-1.1,1-2.1,2.1-3.2,3.2
				c-2.6-2.4-5.4-4.6-8.4-6.6l-1.4-0.9l-1.5-0.9c-1-0.6-1.9-1.2-2.9-1.7c-1.9-1.1-3.8-2.2-5.8-3.1c-3.9-1.9-7.9-3.4-11.9-4.4
				c-4-0.9-8.1-1.2-11.9-0.8c-3.9,0.4-7.6,1.6-11,3.4c-3.4,1.8-6.5,4.3-9.2,7.3c-2.8,3-5.2,6.5-7.6,10.3L926,659l-0.8,1.4
				c-0.5,0.9-1.1,1.9-1.5,2.8c-1,1.9-1.9,3.9-2.7,5.9c-1.6,4-3,8.1-3.9,12.4c-1,4.3-1.7,8.6-2.1,13c-1.4,16.8,0.9,34.1,5.5,50.9
				L917.2,744.4z"/>
			<path d="M927.2,752.7c28.9,6.9,57.9,13.8,86.8,20.7l0.4,0.1l-4.3-0.8l0,0l-100.8-23.9c-1.4-3.6-2.6-7.3-3.6-11
				c-1.4-4.8-2.5-9.6-3.3-14.5s-1.5-9.9-1.8-14.9s-0.3-10.1,0-15.1c0.3-5.1,1-10.1,2.1-15.2c1.1-5,2.6-10,4.6-14.8
				c1-2.4,2.1-4.8,3.3-7.1c0.6-1.2,1.2-2.3,1.9-3.4l1-1.7l1-1.6c2.7-4.2,5.7-8.6,9.5-12.5s8.2-7.4,13.3-9.9s10.6-4.1,16.3-4.4
				c5.6-0.4,11.2,0.4,16.3,1.8c1.3,0.3,2.5,0.8,3.8,1.2c1.2,0.4,2.5,1,3.7,1.4c1.2,0.6,2.4,1.1,3.5,1.7c1.1,0.6,2.3,1.2,3.4,1.9
				c2.2,1.3,4.3,2.7,6.4,4.2c1,0.8,2,1.5,3,2.3l1.4,1.2l1.5,1.3c3,2.7,5.8,5.7,8.3,8.9c-1.1,1-2.1,2-3.1,3.1c-2.8-3-6-6-9.7-8.8
				c-5.4-4-24.5-18-45-12c-14.6,4.3-22.5,16.6-27,24c-22.7,36.8-8.2,82.9-4,95C919.7,750.9,923.5,751.8,927.2,752.7z"/>
			<path d="M921.3,748.1l-4.1-3.7l3.3,1C920.8,746.3,921,747.2,921.3,748.1z"/>
			<path d="M1443.4,899.6l3.1,2.1c-3.4,2-6.9,3.9-10.3,5.8c-6.8,3.6-13.6,6.9-20.7,10.1c-14,6.2-28.4,11.6-43.5,15.2
				c-7.6,1.8-15.2,3.1-23.1,3.8c-4,0.4-8,0.5-12,0.4s-8-0.5-12.1-1.1c-8-1.4-16.1-4-23.4-8.6c-3.6-2.3-6.8-5-9.8-7.9
				c-3.2-3.2-5.9-7.1-7.6-11.3c-1.7-4.3-2.6-8.7-2.7-13.3c0-4.1,0.3-8.1,0.8-12.2c1.1-8,3.4-15.9,6.9-23.4c1.8-3.7,3.9-7.3,6.3-10.7
				s5.2-6.4,8-9.2c5.7-5.6,11.6-10.5,17.6-15.3c1.2-1,21.3-16.5,22.6-17.5l7.5,6.1c-21.6,17.4-45.5,37.7-55,50.7
				c-4.7,11.1-8,23.6-7.5,30.6c0.8,8.9,1.7,13.6,7.4,19.4c2,2,3.8,5.4,5.9,7C1340,948.7,1415.2,914.4,1443.4,899.6z"/>
		</g>
		<g>
			<path class="st4" d="M1153,715c0.4,2.6,1.5,6.9,5,10c6.1,5.3,15,3,19,2c5.6-1.4,9.6-4.1,12-6c0.1,2.1,0.5,7.1,4,12
				c3.8,5.3,8.9,7.2,11,8c9.4,3.4,17.8,0,20-1"/>
			<path class="st4" d="M1558,902c-0.2-9.6-1.1-20-3-31c-8.5-49-33-84.8-51-106c0.9-10.5,3.3-26.2,10-44c5-13.2,8.7-18,12-27
				c4.6-12.7,7.7-32.2-1-61c-22.7,9.7-45.3,19.3-68,29c-50.6-28.9-108.9-56.5-175-79c-13.9-4.7-27.5-9-41-13
				c-5.5-9.2-12.4-19.4-21-30c-7.5-9.3-15-17.3-22-24c-7.2,6.7-14.5,14.1-22,22c-8,8.5-15.3,16.9-22,25c-20.5,5.8-42.9,14.1-66,26
				c-33.1,17.1-60.6,38-83.2,59.7"/>
			<polyline class="st4" points="1305.9,842.7 989.4,767.8 989.4,767.8 890.6,744.5 -0.5,533.5 			"/>
			<line class="st4" x1="1557.9" y1="902.4" x2="1465.2" y2="880.5"/>
			<line class="st4" x1="1557.9" y1="902.4" x2="2559.5" y2="1139.5"/>
		</g>
	</g>
</g>
</svg>
