<?xml version="1.0" encoding="utf-8"?>
<!-- Generator: Adobe Illustrator 22.1.0, SVG Export Plug-In . SVG Version: 6.00 Build 0)  -->
<svg version="1.1" id="Слой_1" xmlns="http://www.w3.org/2000/svg" xmlns:xlink="http://www.w3.org/1999/xlink" x="0px" y="0px"
	 viewBox="0 0 2560 1440" style="enable-background:new 0 0 2560 1440;" xml:space="preserve">
<style type="text/css">
	.st0{fill:#FFFFFF;}
	.st1{fill:none;stroke:#000000;stroke-width:12;stroke-miterlimit:10;}
</style>
<g id="XMLID_1_">
	<g>
		<path class="st0" d="M1558,902l-0.1,0.4L927,753l0,0c22.2-42,70.5-117.3,161-164c23.1-11.9,45.5-20.2,66-26c6.7-8.1,14-16.5,22-25
			c7.5-7.9,14.8-15.3,22-22c7,6.7,14.5,14.7,22,24c8.6,10.6,15.5,20.8,21,30c13.5,4,27.1,8.3,41,13c66.1,22.5,124.4,50.1,175,79
			c22.7-9.7,45.3-19.3,68-29c8.7,28.8,5.6,48.3,1,61c-3.3,9-7,13.8-12,27c-6.7,17.8-9.1,33.5-10,44c18,21.2,42.5,57,51,106
			C1556.9,882,1557.8,892.4,1558,902z M1327,764.5c0-8.6-6.9-15.5-15.5-15.5s-15.5,6.9-15.5,15.5s6.9,15.5,15.5,15.5
			S1327,773.1,1327,764.5z M1127,699.5c0-8.6-6.9-15.5-15.5-15.5s-15.5,6.9-15.5,15.5s6.9,15.5,15.5,15.5S1127,708.1,1127,699.5z"/>
		<circle cx="1311.5" cy="764.5" r="15.5"/>
		<circle cx="1111.5" cy="699.5" r="15.5"/>
	</g>
	<g>
		<path class="st1" d="M1153,715c0.4,2.6,1.5,6.9,5,10c6.1,5.3,15,3,19,2c5.6-1.4,9.6-4.1,12-6c0.1,2.1,0.5,7.1,4,12
			c3.8,5.3,8.9,7.2,11,8c9.4,3.4,17.8,0,20-1"/>
		<path class="st1" d="M1558,902c-0.2-9.6-1.1-20-3-31c-8.5-49-33-84.8-51-106c0.9-10.5,3.3-26.2,10-44c5-13.2,8.7-18,12-27
			c4.6-12.7,7.7-32.2-1-61c-22.7,9.7-45.3,19.3-68,29c-50.6-28.9-108.9-56.5-175-79c-13.9-4.7-27.5-9-41-13
			c-5.5-9.2-12.4-19.4-21-30c-7.5-9.3-15-17.3-22-24c-7.2,6.7-14.5,14.1-22,22c-8,8.5-15.3,16.9-22,25c-20.5,5.8-42.9,14.1-66,26
			c-90.5,46.7-138.8,122-161,164"/>
		<polyline class="st1" points="1557.9,902.4 927,753 -0.5,533.5 		"/>
		<line class="st1" x1="1557.9" y1="902.4" x2="2559.5" y2="1139.5"/>
	</g>
</g>
</svg>
