<?xml version="1.0" encoding="utf-8"?>
<!-- Generator: Adobe Illustrator 22.1.0, SVG Export Plug-In . SVG Version: 6.00 Build 0)  -->
<svg version="1.1" id="Слой_1" xmlns="http://www.w3.org/2000/svg" xmlns:xlink="http://www.w3.org/1999/xlink" x="0px" y="0px"
	 viewBox="0 0 2560 1440" style="enable-background:new 0 0 2560 1440;" xml:space="preserve">
<style type="text/css">
	.st0{fill:#EFE400;stroke:#000000;stroke-width:10;stroke-miterlimit:10;}
	.st1{fill:none;stroke:#000000;stroke-width:10;stroke-miterlimit:10;}
	.st2{fill:#FFFFFF;}
	.st3{fill:#FF7BAC;}
	.st4{fill:none;stroke:#000000;stroke-width:12;stroke-miterlimit:10;}
</style>
<polygon class="st0" points="1079.8,941.7 973.6,918.9 1040.8,805.3 1142.5,828.8 "/>
<g>
	<line class="st1" x1="735.8" y1="906.9" x2="1355.8" y2="1039.5"/>
	<line class="st1" x1="1344.8" y1="1121" x2="1355.8" y2="1039.5"/>
	<line class="st1" x1="735.8" y1="906.9" x2="734.4" y2="982.5"/>
	<line class="st1" x1="868.8" y1="765.6" x2="735.8" y2="906.9"/>
	<line class="st1" x1="1443.4" y1="898.3" x2="868.8" y2="765.6"/>
	<line class="st1" x1="1455.8" y1="942.9" x2="1443.4" y2="898.3"/>
	<line class="st1" x1="1375.6" y1="1005.2" x2="766.4" y2="874.4"/>
	<line class="st1" x1="1142.5" y1="828.8" x2="1079.8" y2="941.7"/>
	<line class="st1" x1="1242.7" y1="851.9" x2="1175.4" y2="962.2"/>
	<line class="st1" x1="1344.2" y1="875.4" x2="1276.5" y2="983.9"/>
	<line class="st1" x1="1040.8" y1="805.3" x2="973.6" y2="914.1"/>
	<line class="st1" x1="951.9" y1="784.8" x2="879.6" y2="898.7"/>
	<line class="st1" x1="1355.8" y1="1039.5" x2="1443.4" y2="898.3"/>
	<line class="st1" x1="1344.8" y1="1121" x2="1455.8" y2="942.9"/>
	<line class="st1" x1="734.4" y1="982.5" x2="1344.8" y2="1121"/>
</g>
<g>
	<g id="XMLID_1_">
		<g>
			<path class="st2" d="M1443.5,872.5l2.5-94.5c-0.4-4.8-1.6-9.6-3.4-14.4c-1.7-4.6-4-9.1-6.9-13.3c-2.8-4.2-6.3-8.1-10.1-11.5
				l-1.5-1.3l-1.4-1.2c-1-0.8-2-1.5-3-2.3c-2.1-1.5-4.2-2.9-6.4-4.2c-1.1-0.7-2.3-1.3-3.4-1.9c-1.1-0.6-2.3-1.1-3.5-1.7
				c-1.2-0.4-2.5-1-3.7-1.4c-1.3-0.4-2.5-0.9-3.8-1.2c-5.1-1.4-10.7-2.2-16.3-1.8c-5.7,0.3-11.2,1.9-16.3,4.4
				c-5.1,2.5-9.5,6-13.3,9.9s-6.8,8.3-9.5,12.5l-1,1.6l-1,1.7c-0.7,1.1-1.3,2.2-1.9,3.4c-1.2,2.3-2.3,4.7-3.3,7.1
				c-2,4.8-3.5,9.8-4.6,14.8c-1.1,5.1-1.8,10.1-2.1,15.2c-0.3,5-0.3,10.1,0,15.1s1,10,1.8,14.9s1.9,9.7,3.3,14.5
				c1.3,4.7,2.9,9.3,4.7,13.8l-285.3-67.5c6-3.8,11.9-7.6,17.6-11.9l-2.5-3.7l-63.3-111.9c0.3-0.3,0.5-0.5,0.8-0.8l-3.8-4.4
				c23-22.4,51.1-44,85.1-61.6c23.1-11.9,45.5-20.2,66-26c6.7-8.1,14-16.5,22-25c7.5-7.9,14.8-15.3,22-22c7,6.7,14.5,14.7,22,24
				c8.6,10.6,15.5,20.8,21,30c13.5,4,27.1,8.3,41,13c66.1,22.5,124.4,50.1,175,79c22.7-9.7,45.3-19.3,68-29c8.7,28.8,5.6,48.3,1,61
				c-3.3,9-7,13.8-12,27c-6.7,17.8-9.1,33.5-10,44c18,21.2,42.5,57,51,106c1.9,11,2.8,21.4,3,31l-0.1,0.4l-163.3-38.7L1443.5,872.5
				l-0.5-0.1C1443.2,872.4,1443.3,872.5,1443.5,872.5z M1327,764.5c0-8.6-6.9-15.5-15.5-15.5s-15.5,6.9-15.5,15.5
				s6.9,15.5,15.5,15.5S1327,773.1,1327,764.5z M1127,699.5c0-8.6-6.9-15.5-15.5-15.5s-15.5,6.9-15.5,15.5s6.9,15.5,15.5,15.5
				S1127,708.1,1127,699.5z"/>
			<path class="st2" d="M1429.4,755.7c6.5,6.2,11.9,13.8,16.6,22.3l-2.5,94.5c-0.2,0-0.3-0.1-0.5-0.1l-93.5-28
				c-4.6-16.8-7-34.1-5.5-50.9c0.4-4.4,1.1-8.7,2.1-13c0.9-4.3,2.3-8.4,3.9-12.4c0.8-2,1.7-4,2.7-5.9c0.4-0.9,1-1.9,1.5-2.8l0.8-1.4
				l0.9-1.5c2.4-3.8,4.8-7.3,7.6-10.3c2.7-3,5.8-5.5,9.2-7.3c3.4-1.8,7.1-3,11-3.4c3.8-0.4,7.9-0.1,11.9,0.8c4,1,8,2.5,11.9,4.4
				c2,0.9,3.9,2,5.8,3.1c1,0.5,1.9,1.1,2.9,1.7l1.5,0.9l1.4,0.9C1422.8,749.8,1426.2,752.6,1429.4,755.7z M1414,771.5
				c0-4.7-3.8-8.5-8.5-8.5s-8.5,3.8-8.5,8.5s3.8,8.5,8.5,8.5S1414,776.2,1414,771.5z M1405,799c0-9.4-6.3-17-14-17s-14,7.6-14,17
				s6.3,17,14,17S1405,808.4,1405,799z M1387.5,760c0-4.7-3.8-8.5-8.5-8.5s-8.5,3.8-8.5,8.5s3.8,8.5,8.5,8.5
				S1387.5,764.7,1387.5,760z M1373,787.5c0-4.7-3.8-8.5-8.5-8.5s-8.5,3.8-8.5,8.5s3.8,8.5,8.5,8.5S1373,792.2,1373,787.5z"/>
			<path d="M1442.6,763.6c1.8,4.8,3,9.6,3.4,14.4c-2.2-7.1-8.4-23.8-25-36c-5.4-4-24.5-18-45-12c-14.6,4.3-22.5,16.6-27,24
				c-22.7,36.8-8.2,82.9-4,95c32.6,7.8,65.4,15.6,98,23.4l0.4,0.1l-48.8-8.8l-55.2-13.1c-1.8-4.5-3.4-9.1-4.7-13.8
				c-1.3-4.8-2.4-9.6-3.3-14.5c-0.8-4.9-1.5-9.9-1.8-14.9s-0.3-10.1,0-15.1c0.3-5.1,1-10.1,2.1-15.2c1.1-5,2.6-10,4.6-14.8
				c1-2.4,2.1-4.8,3.3-7.1c0.6-1.2,1.2-2.3,1.9-3.4l1-1.7l1-1.6c2.7-4.2,5.7-8.6,9.5-12.5s8.2-7.4,13.3-9.9
				c5.1-2.5,10.6-4.1,16.3-4.4c5.6-0.4,11.2,0.4,16.3,1.8c1.3,0.3,2.5,0.8,3.8,1.2c1.2,0.4,2.5,1,3.7,1.4c1.2,0.6,2.4,1.1,3.5,1.7
				c1.1,0.6,2.3,1.2,3.4,1.9c2.2,1.3,4.3,2.7,6.4,4.2c1,0.8,2,1.5,3,2.3l1.4,1.2l1.5,1.3c3.8,3.4,7.3,7.3,10.1,11.5
				C1438.6,754.5,1440.9,759,1442.6,763.6z"/>
			<path d="M1421,742c16.6,12.2,22.8,28.9,25,36c-4.7-8.5-10.1-16.1-16.6-22.3c-3.2-3.1-6.6-5.9-10.3-8.4l-1.4-0.9l-1.5-0.9
				c-1-0.6-1.9-1.2-2.9-1.7c-1.9-1.1-3.8-2.2-5.8-3.1c-3.9-1.9-7.9-3.4-11.9-4.4c-4-0.9-8.1-1.2-11.9-0.8c-3.9,0.4-7.6,1.6-11,3.4
				c-3.4,1.8-6.5,4.3-9.2,7.3c-2.8,3-5.2,6.5-7.6,10.3l-0.9,1.5l-0.8,1.4c-0.5,0.9-1.1,1.9-1.5,2.8c-1,1.9-1.9,3.9-2.7,5.9
				c-1.6,4-3,8.1-3.9,12.4c-1,4.3-1.7,8.6-2.1,13c-1.4,16.8,0.9,34.1,5.5,50.9l-3.3-1l4.1,3.7c-0.3-0.9-0.5-1.8-0.8-2.7l93.5,28
				c-32.6-7.8-65.4-15.6-98-23.4c-4.2-12.1-18.7-58.2,4-95c4.5-7.4,12.4-19.7,27-24C1396.5,724,1415.6,738,1421,742z"/>
			<circle class="st3" cx="1405.5" cy="771.5" r="8.5"/>
			<ellipse class="st3" cx="1391" cy="799" rx="14" ry="17"/>
			<circle class="st3" cx="1379" cy="760" r="8.5"/>
			<circle class="st3" cx="1364.5" cy="787.5" r="8.5"/>
			<path d="M1350.3,847.1l-4.1-3.7l3.3,1C1349.8,845.3,1350,846.2,1350.3,847.1z"/>
			<path d="M1339.4,850.7l55.2,13.1l-51-9.2l-2.8-0.5l-1.3-3.2C1339.5,850.8,1339.4,850.8,1339.4,850.7z"/>
			<circle cx="1311.5" cy="764.5" r="15.5"/>
			<circle cx="1111.5" cy="699.5" r="15.5"/>
			<path d="M1069.2,767.6l2.5,3.7c-5.7,4.2-11.6,8.1-17.6,11.9l-5.1-1.2c11.9-6.7,19.8-12,21-12.8L1069.2,767.6z"/>
			<path d="M1041.9,692.3l1.6-0.6c0.7,1.3,5,9.8,10.2,22.4l-1.9,5.3c-0.7-1.9-1.5-3.9-2.1-5.8c-1.3-3.5-2.7-7-4.2-10.5
				c-1.4-3.5-2.9-7-4.4-10.3L1041.9,692.3z"/>
			<path d="M1043.5,691.7C1043.7,692.2,1043.2,691.1,1043.5,691.7c3.2,6.9,19.1,33,21.7,40.1c5.5,14.3,10,29.1,12.9,44.3
				c1.4,7.6,2.4,15.4,2.6,23.3c0.3,7.9-0.2,16-2,23.9c-1.7,7.9-4.9,15.9-9.8,22.8c-2.5,3.5-5.3,6.5-8.4,9.4
				c-3.4,3.1-7.4,5.5-11.7,7.1c-4.3,1.5-8.9,2.2-13.5,2c-4.1-0.2-8.1-0.8-12.1-1.4c-7.3-1.4-14.5-3.7-21.2-7.1l2.1-5.8
				c0.3,0.1,0.6,0.3,0.9,0.5c10.8,5.3,21.4,7.3,30.3,7.9c7.7,0.5,15.4-2.1,21.1-7.3c2.1-2,4-4,5.7-6c27.1-32.5,6.1-97.2-8.3-131.4
				L1043.5,691.7z"/>
			<path d="M1046.8,706.3l8.1,6c14.3,34.2,42.4,99.2,15.3,131.8c-1.7,2-10,11.5-12.2,13.5c-5.7,5.2-17.7,7.4-25.4,6.9
				c-8.9-0.6-20-3.1-30.8-8.4c-0.3-0.1-13.1-8.6-13.4-8.9l17.6-2.7c6,3.1,12.6,5.4,19.3,6.7c3.4,0.7,7,1.1,10.4,1.3
				c3,0.2,6-0.3,8.8-1.3c2.8-1,5.4-2.5,7.7-4.5c2.5-2.2,4.8-4.9,6.8-7.5c4-5.4,6.6-11.7,8.2-18.5c0.8-3.4,1.3-6.9,1.7-10.4
				c0.3-3.6,0.5-7.1,0.5-10.7c0-7.3-0.7-14.5-1.9-21.8c-1.1-7.3-2.6-14.5-4.4-21.8c-1.8-7.2-3.8-14.4-6.2-21.5
				C1055.5,729.5,1048.7,711.3,1046.8,706.3z"/>
			<path d="M1001.5,647l5.1,1.3c2.3,0.6,3.2,3.5,1.6,5.3c-9.5,10.4-19.3,25.8-28.8,34.6c-3,2.7-33.7,57.9-36.7,60.6
				c7.8-10.2,42.5-83,52.8-97.9c0.1-0.2,0.3-0.4,0.5-0.5c1.3-1.2,2.6-3.7,2.8-4C999.5,645.2,1000.2,646.6,1001.5,647z"/>
			<path d="M1002.9,650.6l3.8,4.4c-0.3,0.3-0.5,0.5-0.8,0.8l-2.4-4.3c-3,2.7-7.1,6.3-12.2,10.9C995,658.4,998.9,654.5,1002.9,650.6z
				"/>
			<path d="M993.8,670.6c1.5-1.8,14.3-17.5,12.9-15.6c-17.7,25.7-53.3,87.5-50.7,90.5c-8,23.3,0.4,37.4,11.5,53.3
				c23.4,33.1,20.5,42.8,35.1,50.6c0.8,0.4,2.6,0.5,2.3,1.3l-2.3,3.3c-0.4,1,1.4,3,0.3,2.4c0,0-2.8-1.4-2.8-1.4
				c-3.6-1.9-7.1-4.3-10.5-6.9c-3.2-2.6-6.1-5.6-8.9-8.5c-5.3-6-6.9-11.8-11.4-18c-4.5-6.2-4-8.9-8.3-15c-4.3-6.2-6.7-8.7-11-15
				c-4.7-16.4-12.9-18.8-7.3-42.9c0.2-0.7,31.3-55.9,31.8-56.5L993.8,670.6z"/>
			<path d="M955.9,796.6c-11.2-15.8-6.3-31.6-13.3-41.6c9.4,11.2,4.5,23.5,13.9,32.5c6.5,9,13,17.9,19.5,26.9
				c4.4,6,9,11.9,13.8,17.1c2.4,2.6,4.8,5.1,7.5,7.2c2.7,2.1,5.5,4,8.5,5.5c0.1,0,0.2,0.1,0.4,0.1l-2.1,5.8
				C988.5,842.4,980.1,830.8,955.9,796.6z"/>
			<path class="st2" d="M914.9,614.1c8.1-7.5,16.2-15,24.4-22.5c-16.9,22.2-29.1,43-37.6,59l0,0l-13.1-3.1c0-0.1,0.1-0.2,0.1-0.4
				c1.2-3.2,2.7-6.2,4.5-9.1s4-5.6,6.3-8.3C904.1,624.4,909.5,619.2,914.9,614.1z"/>
			<path class="st2" d="M1041.9,692.3l-0.9,0.5c1.5,3.3,3,6.8,4.4,10.3c1.5,3.5,2.9,7,4.2,10.5c0.8,1.9,1.5,3.8,2.1,5.8l15.9,58.6
				l1.9,26c-1.9,15.3,3.4,4.8-10.4,35.3c-2.3-3.3-78-19.9-80.4-23.2c-8.7-11.9-36.1-47.5-24.5-64.5L1041.9,692.3z"/>
			<path class="st2" d="M1010.7,831.8l41.1-112.5c1.9,5.1,3.6,10.2,5.3,15.3c2.4,7.1,4.4,14.3,6.2,21.5c1.8,7.3,3.3,14.5,4.4,21.8
				c1.2,7.3,1.8,14.5,1.9,21.8c0.1,3.6-0.1,7.1-0.5,10.7c-0.4,3.5-0.9,6.9-1.7,10.4c-1.6,6.8-4.3,13.1-8.2,18.5
				c-2,2.6-4.3,5.2-6.8,7.5c-2.3,2-4.9,3.6-7.7,4.5s-5.8,1.4-8.8,1.3c-3.4-0.2-7-0.6-10.4-1.3c-6.8-1.3-13.4-3.6-19.3-6.7
				L1010.7,831.8z"/>
		</g>
		<g>
			<polyline class="st4" points="942.3,756.7 843.5,733.3 810.1,725.4 637.5,684.6 569.8,668.5 545.4,662.7 -0.5,533.5 			"/>
			<path class="st4" d="M1153,715c0.4,2.6,1.5,6.9,5,10c6.1,5.3,15,3,19,2c5.6-1.4,9.6-4.1,12-6c0.1,2.1,0.5,7.1,4,12
				c3.8,5.3,8.9,7.2,11,8c9.4,3.4,17.8,0,20-1"/>
			<path class="st4" d="M1558,902c-0.2-9.6-1.1-20-3-31c-8.5-49-33-84.8-51-106c0.9-10.5,3.3-26.2,10-44c5-13.2,8.7-18,12-27
				c4.6-12.7,7.7-32.2-1-61c-22.7,9.7-45.3,19.3-68,29c-50.6-28.9-108.9-56.5-175-79c-13.9-4.7-27.5-9-41-13
				c-5.5-9.2-12.4-19.4-21-30c-7.5-9.3-15-17.3-22-24c-7.2,6.7-14.5,14.1-22,22c-8,8.5-15.3,16.9-22,25c-20.5,5.8-42.9,14.1-66,26
				c-34.1,17.6-62.2,39.2-85.1,61.6"/>
			<line class="st4" x1="1557.9" y1="902.4" x2="2559.5" y2="1139.5"/>
		</g>
	</g>
</g>
<line class="st4" x1="1077.3" y1="788.4" x2="1688.7" y2="933.4"/>
</svg>
