<?xml version="1.0" encoding="utf-8"?>
<!-- Generator: Adobe Illustrator 22.1.0, SVG Export Plug-In . SVG Version: 6.00 Build 0)  -->
<svg version="1.1" id="Слой_1" xmlns="http://www.w3.org/2000/svg" xmlns:xlink="http://www.w3.org/1999/xlink" x="0px" y="0px"
	 viewBox="0 0 2560 1440" style="enable-background:new 0 0 2560 1440;" xml:space="preserve">
<style type="text/css">
	.st0{fill:#FFFFFF;}
	.st1{fill:#FF7BAC;}
	.st2{fill:none;stroke:#000000;stroke-width:12;stroke-miterlimit:10;}
</style>
<g>
	<g id="XMLID_1_">
		<g>
			<path class="st0" d="M1443.5,872.5l2.5-94.5c-0.4-4.8-1.6-9.6-3.4-14.4c-1.7-4.6-4-9.1-6.9-13.3c-2.8-4.2-6.3-8.1-10.1-11.5
				l-1.5-1.3l-1.4-1.2c-1-0.8-2-1.5-3-2.3c-2.1-1.5-4.2-2.9-6.4-4.2c-1.1-0.7-2.3-1.3-3.4-1.9c-1.1-0.6-2.3-1.1-3.5-1.7
				c-1.2-0.4-2.5-1-3.7-1.4c-1.3-0.4-2.5-0.9-3.8-1.2c-5.1-1.4-10.7-2.2-16.3-1.8c-5.7,0.3-11.2,1.9-16.3,4.4
				c-5.1,2.5-9.5,6-13.3,9.9c-3.8,3.9-6.8,8.3-9.5,12.5l-1,1.6l-1,1.7c-0.7,1.1-1.3,2.2-1.9,3.4c-1.2,2.3-2.3,4.7-3.3,7.1
				c-2,4.8-3.5,9.8-4.6,14.8c-1.1,5.1-1.8,10.1-2.1,15.2c-0.3,5-0.3,10.1,0,15.1c0.3,5,1,10,1.8,14.9c0.8,4.9,1.9,9.7,3.3,14.5
				c1.3,4.7,2.9,9.3,4.7,13.8l-285.3-67.5c6-3.8,11.9-7.6,17.6-11.9l-2.5-3.7l-63.3-111.9c0.3-0.3,0.5-0.5,0.8-0.8l-3.8-4.4
				c23-22.4,51.1-44,85.1-61.6c23.1-11.9,45.5-20.2,66-26c6.7-8.1,14-16.5,22-25c7.5-7.9,14.8-15.3,22-22c7,6.7,14.5,14.7,22,24
				c8.6,10.6,15.5,20.8,21,30c13.5,4,27.1,8.3,41,13c66.1,22.5,124.4,50.1,175,79c22.7-9.7,45.3-19.3,68-29c8.7,28.8,5.6,48.3,1,61
				c-3.3,9-7,13.8-12,27c-6.7,17.8-9.1,33.5-10,44c18,21.2,42.5,57,51,106c1.9,11,2.8,21.4,3,31l-0.1,0.4l-163.3-38.7L1443.5,872.5
				l-0.5-0.1C1443.2,872.4,1443.3,872.5,1443.5,872.5z M1327,764.5c0-8.6-6.9-15.5-15.5-15.5s-15.5,6.9-15.5,15.5
				s6.9,15.5,15.5,15.5S1327,773.1,1327,764.5z M1127,699.5c0-8.6-6.9-15.5-15.5-15.5s-15.5,6.9-15.5,15.5s6.9,15.5,15.5,15.5
				S1127,708.1,1127,699.5z"/>
			<path class="st0" d="M1429.4,755.7c6.5,6.2,11.9,13.8,16.6,22.3l-2.5,94.5c-0.2,0-0.3-0.1-0.5-0.1l-93.5-28
				c-4.6-16.8-7-34.1-5.5-50.9c0.4-4.4,1.1-8.7,2.1-13c0.9-4.3,2.3-8.4,3.9-12.4c0.8-2,1.7-4,2.7-5.9c0.4-0.9,1-1.9,1.5-2.8l0.8-1.4
				l0.9-1.5c2.4-3.8,4.8-7.3,7.6-10.3c2.7-3,5.8-5.5,9.2-7.3c3.4-1.8,7.1-3,11-3.4c3.8-0.4,7.9-0.1,11.9,0.8c4,1,8,2.5,11.9,4.4
				c2,0.9,3.9,2,5.8,3.1c1,0.5,1.9,1.1,2.9,1.7l1.5,0.9l1.4,0.9C1422.8,749.8,1426.2,752.6,1429.4,755.7z M1414,771.5
				c0-4.7-3.8-8.5-8.5-8.5s-8.5,3.8-8.5,8.5s3.8,8.5,8.5,8.5S1414,776.2,1414,771.5z M1405,799c0-9.4-6.3-17-14-17s-14,7.6-14,17
				s6.3,17,14,17S1405,808.4,1405,799z M1387.5,760c0-4.7-3.8-8.5-8.5-8.5s-8.5,3.8-8.5,8.5s3.8,8.5,8.5,8.5
				S1387.5,764.7,1387.5,760z M1373,787.5c0-4.7-3.8-8.5-8.5-8.5s-8.5,3.8-8.5,8.5s3.8,8.5,8.5,8.5S1373,792.2,1373,787.5z"/>
			<path d="M1442.6,763.6c1.8,4.8,3,9.6,3.4,14.4c-2.2-7.1-8.4-23.8-25-36c-5.4-4-24.5-18-45-12c-14.6,4.3-22.5,16.6-27,24
				c-22.7,36.8-8.2,82.9-4,95c32.6,7.8,65.4,15.6,98,23.4l0.4,0.1l-48.8-8.8l-55.2-13.1c-1.8-4.5-3.4-9.1-4.7-13.8
				c-1.3-4.8-2.4-9.6-3.3-14.5c-0.8-4.9-1.5-9.9-1.8-14.9c-0.3-5-0.3-10.1,0-15.1c0.3-5.1,1-10.1,2.1-15.2c1.1-5,2.6-10,4.6-14.8
				c1-2.4,2.1-4.8,3.3-7.1c0.6-1.2,1.2-2.3,1.9-3.4l1-1.7l1-1.6c2.7-4.2,5.7-8.6,9.5-12.5c3.8-3.9,8.2-7.4,13.3-9.9
				c5.1-2.5,10.6-4.1,16.3-4.4c5.6-0.4,11.2,0.4,16.3,1.8c1.3,0.3,2.5,0.8,3.8,1.2c1.2,0.4,2.5,1,3.7,1.4c1.2,0.6,2.4,1.1,3.5,1.7
				c1.1,0.6,2.3,1.2,3.4,1.9c2.2,1.3,4.3,2.7,6.4,4.2c1,0.8,2,1.5,3,2.3l1.4,1.2l1.5,1.3c3.8,3.4,7.3,7.3,10.1,11.5
				C1438.6,754.5,1440.9,759,1442.6,763.6z"/>
			<path d="M1421,742c16.6,12.2,22.8,28.9,25,36c-4.7-8.5-10.1-16.1-16.6-22.3c-3.2-3.1-6.6-5.9-10.3-8.4l-1.4-0.9l-1.5-0.9
				c-1-0.6-1.9-1.2-2.9-1.7c-1.9-1.1-3.8-2.2-5.8-3.1c-3.9-1.9-7.9-3.4-11.9-4.4c-4-0.9-8.1-1.2-11.9-0.8c-3.9,0.4-7.6,1.6-11,3.4
				c-3.4,1.8-6.5,4.3-9.2,7.3c-2.8,3-5.2,6.5-7.6,10.3l-0.9,1.5l-0.8,1.4c-0.5,0.9-1.1,1.9-1.5,2.8c-1,1.9-1.9,3.9-2.7,5.9
				c-1.6,4-3,8.1-3.9,12.4c-1,4.3-1.7,8.6-2.1,13c-1.4,16.8,0.9,34.1,5.5,50.9l-3.3-1l4.1,3.7c-0.3-0.9-0.5-1.8-0.8-2.7l93.5,28
				c-32.6-7.8-65.4-15.6-98-23.4c-4.2-12.1-18.7-58.2,4-95c4.5-7.4,12.4-19.7,27-24C1396.5,724,1415.6,738,1421,742z"/>
			<circle class="st1" cx="1405.5" cy="771.5" r="8.5"/>
			<ellipse class="st1" cx="1391" cy="799" rx="14" ry="17"/>
			<circle class="st1" cx="1379" cy="760" r="8.5"/>
			<circle class="st1" cx="1364.5" cy="787.5" r="8.5"/>
			<path d="M1350.3,847.1l-4.1-3.7l3.3,1C1349.8,845.3,1350,846.2,1350.3,847.1z"/>
			<path d="M1339.4,850.7l55.2,13.1l-51-9.2l-2.8-0.5l-1.3-3.2C1339.5,850.8,1339.4,850.8,1339.4,850.7z"/>
			<circle cx="1311.5" cy="764.5" r="15.5"/>
			<circle cx="1111.5" cy="699.5" r="15.5"/>
			<path d="M1069.2,767.6l2.5,3.7c-5.7,4.2-11.6,8.1-17.6,11.9l-5.1-1.2c11.9-6.7,19.8-12,21-12.8L1069.2,767.6z"/>
			<path d="M1069.2,767.6l0.8,1.5c-1.2,0.8-9.1,6.1-21,12.8l-5.5-1.3c1.8-0.9,3.7-1.9,5.5-2.8c3.3-1.7,6.6-3.5,9.9-5.4
				c3.3-1.8,6.6-3.7,9.7-5.6L1069.2,767.6z"/>
			<path class="st0" d="M1069.2,767.6l-0.6-0.8c-3.1,1.9-6.4,3.8-9.7,5.6c-3.3,1.9-6.6,3.7-9.9,5.4c-1.8,1-3.6,1.9-5.5,2.8L927,753
				l0,0c8.5-16,20.7-36.8,37.6-59c3-2.7,5.9-5.4,8.9-8.2c10.8-10,21.7-19.9,32.4-30L1069.2,767.6z"/>
			<path d="M1054.1,783.2c-0.5,0.3-1,0.6-1.5,0.9c-6.5,4-13.1,7.8-19.9,11.3c-13.6,7.1-27.7,13.3-42.5,18c-7.4,2.3-15,4.2-22.8,5.3
				c-7.8,1.2-15.9,1.7-24,0.8c-8.1-0.8-16.4-3-23.8-7.1c-3.8-2.1-7.1-4.5-10.3-7.2c-3.5-3-6.3-6.7-8.4-10.8c-2-4.1-3.2-8.6-3.6-13.2
				c-0.3-4.1-0.2-8.1,0-12.2c0.5-7.4,2-14.8,4.6-21.9l6,1.4c-0.1,0.3-0.2,0.6-0.4,1c-4,11.3-4.7,22.1-4.3,31
				c0.4,7.7,3.9,15,9.7,20.1c2.2,1.9,4.4,3.5,6.6,5c35.5,23.1,97.2-5.4,129.5-23.7L1054.1,783.2z"/>
			<path d="M1043.5,780.6l5.5,1.3c-32.3,18.2-94,46.8-129.5,23.7c-2.2-1.5-4.4-3.1-6.6-5c-5.8-5.1-9.3-12.4-9.7-20.1
				c-0.4-8.9,0.3-19.7,4.3-31c0.1-0.3,0.2-0.7,0.4-1l6,1.4c-2.4,6.3-3.9,13.1-4.4,20c-0.3,3.5-0.3,7.1-0.1,10.5c0.2,3,1,5.9,2.3,8.6
				s3.1,5.1,5.4,7.1c2.5,2.2,5.4,4.2,8.2,5.9c5.8,3.3,12.4,5.2,19.3,6c3.5,0.4,7,0.5,10.5,0.5c3.6-0.1,7.1-0.3,10.7-0.8
				c7.2-0.9,14.3-2.4,21.4-4.4c7.1-1.9,14.1-4.3,21.1-6.9c6.9-2.6,13.8-5.5,20.6-8.7C1033.8,785.5,1038.7,783.1,1043.5,780.6z"/>
			<path class="st0" d="M927,753l116.5,27.6c-4.8,2.5-9.7,4.8-14.6,7.1c-6.8,3.2-13.7,6.1-20.6,8.7c-7,2.6-14,5-21.1,6.9
				c-7.1,2-14.2,3.5-21.4,4.4c-3.6,0.5-7.1,0.7-10.7,0.8c-3.5,0-7-0.1-10.5-0.5c-6.9-0.8-13.5-2.7-19.3-6c-2.8-1.7-5.7-3.7-8.2-5.9
				c-2.3-2-4.1-4.4-5.4-7.1s-2.1-5.6-2.3-8.6c-0.2-3.4-0.2-7,0.1-10.5c0.5-6.9,2-13.7,4.4-20L927,753z"/>
			<path d="M1003.5,651.5l2.4,4.3c-10.7,10.1-21.6,20.1-32.4,30c-3,2.7-5.9,5.5-8.9,8.2c7.9-10.3,16.7-21,26.7-31.6
				C996.4,657.8,1000.5,654.2,1003.5,651.5z"/>
			<path d="M1002.9,650.6l3.8,4.4c-0.3,0.3-0.5,0.5-0.8,0.8l-2.4-4.3c-3,2.7-7.1,6.3-12.2,10.9C995,658.4,998.9,654.5,1002.9,650.6z
				"/>
			<path d="M1002.9,650.6c-4,3.9-7.8,7.8-11.5,11.8c-9.2,8.2-21.4,19.2-35.8,32.1c-31.1,28-41.6,37.7-47.6,54l-6-1.4
				c0.2-0.6,0.5-1.3,0.7-1.9c1.5-3.8,3.4-7.6,5.6-11.2c2.2-3.5,4.8-6.7,7.4-9.8c5.3-6,10.9-11.3,16.5-16.5
				c5.6-5.2,11.3-10.2,16.9-15.2c5.7-5,11.3-10,17.1-15c11.4-9.9,22.8-19.9,34.3-29.7L1002.9,650.6z"/>
			<path d="M955.5,694.5c14.4-13,26.7-24,35.8-32.1c-10,10.6-18.9,21.3-26.7,31.6c-8.2,7.5-16.3,15-24.4,22.5
				c-5.4,5.1-10.8,10.3-15.4,15.7c-2.3,2.7-4.5,5.4-6.3,8.3s-3.3,5.9-4.5,9.1c0,0.1-0.1,0.2-0.1,0.4l-6-1.4
				C913.9,732.2,924.4,722.5,955.5,694.5z"/>
			<path class="st0" d="M940.2,716.5c8.1-7.5,16.2-15,24.4-22.5c-16.9,22.2-29.1,43-37.6,59l0,0l-13.1-3.1c0-0.1,0.1-0.2,0.1-0.4
				c1.2-3.2,2.7-6.2,4.5-9.1s4-5.6,6.3-8.3C929.4,726.8,934.8,721.6,940.2,716.5z"/>
		</g>
		<g>
			<path class="st2" d="M1153,715c0.4,2.6,1.5,6.9,5,10c6.1,5.3,15,3,19,2c5.6-1.4,9.6-4.1,12-6c0.1,2.1,0.5,7.1,4,12
				c3.8,5.3,8.9,7.2,11,8c9.4,3.4,17.8,0,20-1"/>
			<path class="st2" d="M1558,902c-0.2-9.6-1.1-20-3-31c-8.5-49-33-84.8-51-106c0.9-10.5,3.3-26.2,10-44c5-13.2,8.7-18,12-27
				c4.6-12.7,7.7-32.2-1-61c-22.7,9.7-45.3,19.3-68,29c-50.6-28.9-108.9-56.5-175-79c-13.9-4.7-27.5-9-41-13
				c-5.5-9.2-12.4-19.4-21-30c-7.5-9.3-15-17.3-22-24c-7.2,6.7-14.5,14.1-22,22c-8,8.5-15.3,16.9-22,25c-20.5,5.8-42.9,14.1-66,26
				c-34.1,17.6-62.2,39.2-85.1,61.6"/>
			<line class="st2" x1="901.9" y1="747.1" x2="-0.5" y2="533.5"/>
			<polyline class="st2" points="1557.9,902.4 1394.6,863.8 1339.4,850.7 1054.1,783.2 			"/>
			<line class="st2" x1="1557.9" y1="902.4" x2="2559.5" y2="1139.5"/>
		</g>
	</g>
</g>
</svg>
